<svg version="1.1" class="clearos-svg clearfoundation app-vendor-clearfoundation app-free app-category-gateway app-sub-category-antimalware" viewBox="0 0 400 400" preserveAspectRatio="xMinYMin" xmlns="http://www.w3.org/2000/svg" xmlns:xlink= "http://www.w3.org/1999/xlink">
<path fill="#AA0707" d="M91.666,184.647"/>
<path fill="#AA0707" d="M123.245,247.805"/>
<path fill="#AA0707" d="M91.666,184.647"/>
<path fill="#AA0707" d="M123.245,247.805"/>
<g>
	<path fill="#686868" d="M199.984,2.619C127.623,63.155,72.024,35.184,44.38,32.557c0,121.046,0.988,100.333,0.988,142.455
		c0,100.66,88.832,196.723,154.616,222.369c65.793-25.648,154.625-121.71,154.625-222.37c0-42.122,1.01-21.392,1.01-142.455
		C327.953,35.184,272.371,63.154,199.984,2.619z M341.203,177.172c0,91.918-81.148,179.678-141.219,203.1
		c-60.084-23.422-141.21-111.166-141.21-203.1c0-38.459-0.902-19.556-0.902-130.106c25.241,2.387,76.01,27.947,142.113-27.325
		c66.118,55.271,116.896,29.743,142.151,27.325C342.139,157.602,341.203,138.713,341.203,177.172z"/>
	<path fill="#686868" d="M97.381,249.887L270.193,77.104c-19.844-0.738-43.506-7.441-70.193-29.75
		c-55.995,46.803-98.987,25.178-120.363,23.141c0,93.638,0.785,77.604,0.785,110.169C80.422,204.583,86.932,228.145,97.381,249.887z
		"/>
	<g>
		<path fill="#686868" d="M320.285,111.909c0.031-10.793,0.047-24.214,0.047-41.415c-2.582,0.249-5.506,0.809-8.74,1.462
			L110.483,273.089c6.307,9.859,13.445,19.129,20.91,27.683L320.285,111.909z"/>
		<path fill="#686868" d="M149.373,319.091c16.835,15.507,34.564,27.31,50.613,33.529c50.878-19.813,119.569-94.119,119.569-171.972
			c0-16.244,0.221-20.42,0.373-32.139L149.373,319.091z"/>
	</g>
</g>
</svg>
